<?xml version="1.0" encoding="utf-8"?>
<!-- Generator: Adobe Illustrator 23.0.3, SVG Export Plug-In . SVG Version: 6.00 Build 0)  -->
<svg version="1.1" id="Layer_1" xmlns="http://www.w3.org/2000/svg" xmlns:xlink="http://www.w3.org/1999/xlink" x="0px" y="0px"
	 viewBox="0 0 2000 2000" enable-background="new 0 0 2000 2000" xml:space="preserve">
<circle fill="#FFCE58" cx="1002" cy="1000" r="1000"/>
<ellipse fill="#333333" cx="977" cy="972.5" rx="975" ry="972.5"/>
<g id="Clouds" opacity="0.05">
	<path fill="#FFFFFF" d="M1180.906,333.296L1180.906,333.296c13.68,13.645,35.859,13.645,49.538,0l59.052-58.9
		c13.679-13.644,35.859-13.645,49.538,0h0c13.679,13.645,13.679,35.767,0,49.411l-65.3,65.133c-13.68,13.645-13.679,35.766,0,49.411
		c13.679,13.645,35.858,13.645,49.538,0l26.591-26.522c13.679-13.644,35.859-13.644,49.538,0v0c13.68,13.644,13.679,35.767,0,49.411
		l-21.332,21.277c-13.68,13.645-13.68,35.767,0,49.411c13.68,13.645,35.858,13.645,49.538,0l204.782-204.257
		c13.68-13.644,13.68-35.766,0-49.411h0c-13.679-13.645-35.858-13.645-49.538,0l-29.856,29.779
		c-13.68,13.644-35.859,13.645-49.538,0c-13.679-13.645-13.679-35.767,0-49.411l41.646-41.539
		c7.21-7.191,10.615-16.737,10.225-26.156c-14.902-11.025-30.124-21.645-45.661-31.826c-5.157,1.64-10.011,4.49-14.102,8.571
		l-2.936,2.929c-13.68,13.644-35.859,13.644-49.538,0c-13.68-13.645-13.68-35.767,0-49.411l1.297-1.294
		c-21.509-11.805-43.509-22.828-65.969-33.022l-197.512,197.006C1167.226,297.529,1167.226,319.651,1180.906,333.296z"/>
	<path fill="#FFFFFF" d="M109.471,1398.209l12.587-12.555c14.718-14.68,14.719-38.482,0-53.163
		c-14.65-14.612-38.357-14.674-53.091-0.198c10.215,25.57,21.484,50.606,33.758,75.054
		C104.453,1404.059,106.701,1400.972,109.471,1398.209z"/>
	<path fill="#FFFFFF" d="M299.053,1421.882c14.788-13.519,37.747-13.177,52.069,1.109l0,0c14.132,14.095,14.626,36.561,1.619,51.326
		l-44.396,44.282c-14.718,14.681-14.718,38.482,0,53.163c14.718,14.681,38.581,14.681,53.299,0l117.117-116.816
		c14.718-14.678,38.58-14.678,53.297,0.002c13.865,13.83,14.657,35.747,2.399,50.515l-25.479,25.413
		c-14.719,14.68-14.719,38.482,0,53.163c14.718,14.681,38.581,14.681,53.299,0l220.331-219.767c14.718-14.68,14.718-38.482,0-53.162
		c-14.718-14.681-38.581-14.681-53.299,0l-34.65,34.561c-14.806,12.227-36.779,11.436-50.644-2.393l0,0
		c-14.717-14.68-14.718-38.48-0.002-53.16l164.336-163.915c14.718-14.678,38.58-14.678,53.297,0.002
		c13.865,13.83,14.657,35.747,2.399,50.515l-25.479,25.414c-14.718,14.68-14.718,38.482,0,53.163s38.581,14.68,53.3,0
		l220.331-219.767c14.718-14.68,14.718-38.482,0-53.163c-14.718-14.68-38.581-14.68-53.299,0l-34.65,34.561
		c-14.806,12.226-36.779,11.436-50.644-2.393l0,0c-14.717-14.68-14.718-38.48-0.002-53.16l44.81-44.695
		c14.718-14.681,14.718-38.482,0-53.163c-14.718-14.681-38.581-14.68-53.299,0l-5.356,5.342
		c-14.808,12.536-37.015,11.861-50.992-2.08h0c-14.717-14.68-14.718-38.48-0.002-53.16l56.461-56.316
		c14.718-14.681,14.718-38.483,0-53.163c-14.718-14.68-38.581-14.68-53.299,0l-285.251,284.52c-14.718,14.68-14.718,38.482,0,53.163
		c14.719,14.68,38.581,14.68,53.3,0l63.538-63.375c14.718-14.678,38.58-14.678,53.297,0.002
		c13.976,13.941,14.654,36.091,2.085,50.861l-246.37,245.738c-14.807,12.536-37.015,11.861-50.992-2.08l0,0
		c-14.717-14.68-14.718-38.48-0.002-53.16l68.121-67.946c14.718-14.681,14.718-38.482,0-53.163c-14.719-14.681-38.581-14.681-53.3,0
		l-32.122,32.04c-14.719,14.681-38.581,14.68-53.299,0c-14.718-14.68-14.719-38.482,0-53.163l32.122-32.04
		c14.718-14.68,14.718-38.482,0-53.163c-14.718-14.68-38.581-14.68-53.3,0l-220.331,219.766c-14.718,14.68-14.718,38.482,0,53.163
		c14.719,14.681,38.582,14.681,53.3,0l22.952-22.892c14.718-14.681,38.581-14.681,53.299,0c14.718,14.68,14.718,38.482,0,53.163
		l-156.201,155.8c-8.275,8.254-19.441,11.867-30.246,10.84c15.349,26.215,31.89,51.65,49.553,76.229l118.085-117.783
		C299.769,1421.051,299.427,1421.476,299.053,1421.882z"/>
	<path fill="#FFFFFF" d="M676.689,772.589c-12.865-12.832-33.723-12.832-46.587,0L502.577,899.786
		c-12.865,12.832-12.865,33.636,0,46.468v0c12.865,12.832,33.723,12.832,46.588,0l127.524-127.197
		C689.554,806.225,689.554,785.421,676.689,772.589L676.689,772.589z"/>
	<path fill="#FFFFFF" d="M240.428,542.045c-14.718-14.68-38.581-14.68-53.3,0l-63.538,63.375
		c-14.337,14.298-37.347,14.662-52.133,1.102c-28.038,68.802-48.411,141.526-60.053,217.122l229.023-228.436
		C255.146,580.527,255.146,556.725,240.428,542.045z"/>
	<path fill="#FFFFFF" d="M122.386,500.516l192.191-191.698c14.808-12.536,37.015-11.861,50.992,2.08v0
		c14.717,14.68,14.718,38.48,0.002,53.16l-68.121,67.946c-14.718,14.681-14.718,38.482,0,53.163c14.719,14.681,38.582,14.681,53.3,0
		l32.122-32.04c14.719-14.681,38.581-14.68,53.299,0c14.718,14.68,14.719,38.482,0,53.163l-32.122,32.04
		c-14.718,14.681-14.718,38.482,0,53.163c14.718,14.68,38.581,14.68,53.3,0l220.331-219.766c14.718-14.681,14.718-38.482,0-53.163
		c-14.719-14.681-38.581-14.681-53.3,0l-22.951,22.893c-14.718,14.681-38.582,14.681-53.3,0c-14.718-14.68-14.718-38.482,0-53.163
		l156.2-155.8c14.719-14.681,38.582-14.681,53.3,0v0c14.718,14.68,14.718,38.482,0,53.163l-12.587,12.555
		c-14.718,14.681-14.718,38.482,0,53.163c14.718,14.681,38.582,14.68,53.299,0l220.332-219.767
		c8.257-8.235,11.879-19.341,10.872-30.097C1011.506,0.52,993.339,0,975.05,0c-10.647,0-21.25,0.19-31.815,0.528l-20.348,20.296
		c-14.718,14.68-38.581,14.68-53.299,0h0c-4.151-4.14-7.13-9.006-8.939-14.187c-59.541,6.941-117.442,19.232-173.209,36.38
		L566.938,163.208c0.394-0.394,0.737-0.818,1.11-1.225c-14.788,13.519-37.747,13.177-52.069-1.109v0
		c-11.548-11.518-13.985-28.624-7.394-42.552C346.407,206.621,212.15,339.529,122.386,500.516z"/>
	<path fill="#FFFFFF" d="M364.525,637.611c-12.865-12.832-33.723-12.832-46.588,0L190.413,764.809
		c-12.865,12.832-12.865,33.636,0,46.468h0c12.865,12.832,33.723,12.832,46.587,0L364.525,684.08
		C377.389,671.248,377.389,650.444,364.525,637.611L364.525,637.611z"/>
	<path fill="#FFFFFF" d="M725.1,1911.938l32.122-32.04c14.718-14.68,14.718-38.482,0-53.163c-14.718-14.681-38.581-14.681-53.3,0
		l-60.649,60.494c26.557,9.585,53.651,18.049,81.224,25.342C724.699,1912.36,724.893,1912.145,725.1,1911.938z"/>
	<path fill="#FFFFFF" d="M1353.07,1816.73l-34.65,34.561c-14.806,12.226-36.779,11.436-50.644-2.394l0,0
		c-14.717-14.68-14.718-38.48-0.002-53.16l44.81-44.695c14.718-14.681,14.718-38.482,0-53.163
		c-14.718-14.681-38.582-14.681-53.299,0l-5.356,5.342c-14.808,12.536-37.015,11.861-50.992-2.08h0
		c-14.718-14.68-14.718-38.48-0.002-53.16l56.461-56.316c14.718-14.68,14.718-38.483,0-53.163
		c-14.718-14.681-38.581-14.681-53.299,0l-285.251,284.52c-14.718,14.681-14.718,38.482,0,53.163
		c14.719,14.681,38.581,14.681,53.3,0l63.538-63.375c14.718-14.678,38.58-14.678,53.297,0.002
		c13.977,13.941,14.654,36.091,2.085,50.861l-80.838,80.631c145.396-5.437,282.643-42.635,404.981-104.832
		c-0.85-8.304-4.459-16.379-10.838-22.741C1391.651,1802.05,1367.789,1802.05,1353.07,1816.73z"/>
	<path fill="#FFFFFF" d="M863.822,1933.061c-14.169-14.133-36.809-14.654-51.611-1.576c18.704,3.137,37.591,5.735,56.641,7.793
		C867.427,1937.077,865.754,1934.989,863.822,1933.061z"/>
	<path fill="#FFFFFF" d="M970.859,1606.951c-12.865-12.832-33.723-12.832-46.587,0l-127.524,127.197
		c-12.865,12.831-12.865,33.636,0,46.468v0c12.865,12.832,33.723,12.832,46.588,0L970.86,1653.42
		C983.724,1640.588,983.725,1619.783,970.859,1606.951L970.859,1606.951z"/>
	<path fill="#FFFFFF" d="M1928.797,769.682c-14.722,10.507-35.321,9.175-48.543-4.013v0c-13.865-13.829-14.657-35.747-2.399-50.515
		l25.479-25.413c1.313-1.31,2.504-2.695,3.583-4.138c-6.132-19.837-12.872-39.408-20.219-58.68
		c-12.64-3.462-26.732-0.251-36.663,9.655l-220.331,219.766c-14.718,14.681-14.718,38.483,0,53.163
		c14.718,14.68,38.581,14.68,53.299,0l34.65-34.561c14.806-12.227,36.779-11.436,50.644,2.393h0
		c14.718,14.68,14.718,38.48,0.002,53.161l-164.336,163.915c-14.718,14.678-38.58,14.678-53.297-0.002
		c-13.865-13.83-14.657-35.747-2.399-50.515l25.479-25.414c14.718-14.68,14.718-38.482,0-53.163
		c-14.718-14.681-38.582-14.681-53.299,0l-220.332,219.767c-14.718,14.68-14.718,38.482,0,53.163
		c14.718,14.68,38.582,14.68,53.299,0l34.65-34.561c14.806-12.226,36.779-11.436,50.644,2.393l0,0
		c14.717,14.68,14.718,38.48,0.002,53.16l-44.81,44.695c-14.718,14.681-14.718,38.482,0,53.163c14.718,14.681,38.582,14.681,53.3,0
		l5.355-5.342c14.808-12.536,37.015-11.861,50.992,2.08h0c14.718,14.68,14.718,38.48,0.002,53.16l-56.461,56.316
		c-14.718,14.68-14.718,38.483,0,53.163c14.718,14.681,38.581,14.68,53.299,0l285.251-284.52c14.718-14.681,14.718-38.482,0-53.163
		c-14.718-14.681-38.581-14.681-53.3,0l-63.538,63.375c-14.718,14.678-38.58,14.678-53.297-0.002
		c-13.977-13.941-14.653-36.092-2.085-50.861l246.37-245.738c14.808-12.536,37.015-11.861,50.992,2.08v0
		c14.718,14.68,14.718,38.48,0.002,53.16l-68.12,67.946c-14.718,14.68-14.718,38.482,0,53.163c14.719,14.681,38.582,14.681,53.3,0
		l32.122-32.04c4.625-4.613,10.154-7.775,16.018-9.489c3.92-35.427,5.949-71.422,5.949-107.891
		C1950.05,902.945,1942.712,835.102,1928.797,769.682z"/>
	<path fill="#FFFFFF" d="M1863.147,1274.364l-127.524,127.197c-12.864,12.832-12.864,33.636,0,46.468h0
		c12.865,12.832,33.723,12.832,46.587,0l86.675-86.452c13.101-29.9,24.725-60.59,34.808-91.968
		C1890.998,1261.809,1874.15,1263.389,1863.147,1274.364z"/>
</g>
<g id="Stars">
	<path fill="#FFCE58" d="M800.098,424.35h-6.749c-3.186,0-5.769-2.576-5.769-5.754v-6.732c0-4.409-3.18-8.426-7.578-8.865
		c-5.058-0.505-9.322,3.443-9.322,8.384v7.213c0,3.178-2.583,5.754-5.768,5.754h-6.749c-4.42,0-8.448,3.172-8.888,7.559
		c-0.507,5.045,3.452,9.297,8.406,9.297h7.231c3.186,0,5.768,2.576,5.768,5.754v6.732c0,4.409,3.18,8.426,7.578,8.866
		c5.058,0.505,9.322-3.443,9.322-8.385v-7.213c0-3.178,2.583-5.754,5.769-5.754h7.231c4.954,0,8.913-4.253,8.406-9.297
		C808.546,427.522,804.518,424.35,800.098,424.35z"/>
	<path fill="#FFCE58" d="M305.295,1052.199h-6.749c-3.186,0-5.768-2.576-5.768-5.754v-6.732c0-4.409-3.18-8.426-7.578-8.866
		c-5.058-0.505-9.322,3.443-9.322,8.385v7.213c0,3.178-2.583,5.754-5.768,5.754h-6.749c-4.42,0-8.448,3.172-8.888,7.559
		c-0.506,5.045,3.452,9.297,8.406,9.297h7.231c3.186,0,5.768,2.576,5.768,5.754v6.732c0,4.409,3.18,8.426,7.578,8.865
		c5.058,0.505,9.322-3.443,9.322-8.385v-7.213c0-3.178,2.583-5.754,5.768-5.754h7.231c4.954,0,8.913-4.252,8.406-9.297
		C313.743,1055.372,309.715,1052.199,305.295,1052.199z"/>
	<path fill="#FFCE58" d="M1356.697,1606.57h-6.749c-3.186,0-5.768-2.576-5.768-5.754v-6.732c0-4.409-3.18-8.426-7.578-8.865
		c-5.058-0.505-9.322,3.443-9.322,8.385v7.213c0,3.178-2.583,5.754-5.768,5.754h-6.749c-4.42,0-8.448,3.172-8.888,7.559
		c-0.506,5.045,3.452,9.297,8.406,9.297h7.231c3.186,0,5.768,2.576,5.768,5.754v6.732c0,4.408,3.18,8.426,7.578,8.865
		c5.058,0.505,9.322-3.443,9.322-8.385v-7.213c0-3.178,2.583-5.754,5.768-5.754h7.231c4.954,0,8.913-4.253,8.406-9.297
		C1365.145,1609.742,1361.117,1606.57,1356.697,1606.57z"/>
	<path fill="#FFCE58" d="M1830.666,1052.524h-6.749c-3.186,0-5.768-2.576-5.768-5.754v-6.732c0-4.409-3.181-8.426-7.578-8.865
		c-5.058-0.505-9.322,3.443-9.322,8.385v7.212c0,3.178-2.583,5.754-5.769,5.754h-6.749c-4.42,0-8.448,3.172-8.889,7.559
		c-0.506,5.045,3.452,9.297,8.406,9.297h7.231c3.186,0,5.769,2.576,5.769,5.754v6.732c0,4.409,3.18,8.426,7.578,8.866
		c5.058,0.505,9.322-3.443,9.322-8.385v-7.213c0-3.178,2.583-5.754,5.768-5.754h7.231c4.954,0,8.913-4.253,8.406-9.297
		C1839.114,1055.696,1835.086,1052.524,1830.666,1052.524z"/>
	<path fill="#FFCE58" d="M1747.466,503.484h-6.749c-3.186,0-5.769-2.576-5.769-5.754v-6.732c0-4.409-3.18-8.426-7.578-8.865
		c-5.058-0.505-9.322,3.443-9.322,8.385v7.213c0,3.178-2.583,5.754-5.769,5.754h-6.749c-4.42,0-8.448,3.172-8.888,7.559
		c-0.507,5.045,3.452,9.298,8.406,9.298h7.231c3.186,0,5.769,2.576,5.769,5.754v6.732c0,4.409,3.18,8.426,7.578,8.866
		c5.058,0.505,9.322-3.443,9.322-8.385v-7.213c0-3.178,2.583-5.754,5.769-5.754h7.231c4.954,0,8.913-4.253,8.406-9.298
		C1755.914,506.656,1751.886,503.484,1747.466,503.484z"/>
	<path fill="#FFCE58" d="M205.618,611.732h-6.749c-3.186,0-5.768-2.576-5.768-5.754v-6.732c0-4.409-3.18-8.426-7.578-8.866
		c-5.058-0.505-9.322,3.443-9.322,8.385v7.213c0,3.178-2.583,5.754-5.769,5.754h-6.749c-4.42,0-8.448,3.172-8.889,7.559
		c-0.506,5.045,3.452,9.297,8.406,9.297h7.231c3.186,0,5.769,2.576,5.769,5.754v6.732c0,4.409,3.18,8.426,7.578,8.865
		c5.058,0.505,9.322-3.443,9.322-8.385v-7.213c0-3.178,2.583-5.754,5.768-5.754h7.231c4.954,0,8.913-4.253,8.406-9.297
		C214.066,614.904,210.038,611.732,205.618,611.732z"/>
</g>
<g id="White_Stars">
	<path fill="#FFFFFF" d="M1335.357,642.895c0,8.236-6.694,14.912-14.95,14.912s-14.95-6.676-14.95-14.912
		c0-8.235,6.693-14.911,14.95-14.911S1335.357,634.659,1335.357,642.895z"/>
	<path fill="#FFFFFF" d="M1031.377,1347.013c0,8.236-6.693,14.912-14.95,14.912s-14.95-6.676-14.95-14.912
		c0-8.235,6.693-14.911,14.95-14.911S1031.377,1338.778,1031.377,1347.013z"/>
	<path fill="#FFFFFF" d="M1320.853,926.411c0,8.236-6.693,14.912-14.95,14.912c-8.257,0-14.95-6.676-14.95-14.912
		c0-8.235,6.693-14.912,14.95-14.912C1314.159,911.499,1320.853,918.175,1320.853,926.411z"/>
	<path fill="#FFFFFF" d="M1726.121,1428.686c0,8.235-6.694,14.911-14.95,14.911c-8.257,0-14.95-6.676-14.95-14.911
		c0-8.236,6.693-14.912,14.95-14.912C1719.428,1413.774,1726.121,1420.45,1726.121,1428.686z"/>
	<path fill="#FFFFFF" d="M1064.392,1735.027c0,8.235-6.693,14.912-14.95,14.912s-14.95-6.677-14.95-14.912
		c0-8.235,6.693-14.912,14.95-14.912S1064.392,1726.792,1064.392,1735.027z"/>
	<path fill="#FFFFFF" d="M1046.276,138.019c0,8.236-6.694,14.912-14.95,14.912c-8.257,0-14.95-6.676-14.95-14.912
		s6.693-14.912,14.95-14.912C1039.582,123.107,1046.276,129.783,1046.276,138.019z"/>
	<path fill="#FFFFFF" d="M199.925,1331.689c0,8.236-6.694,14.912-14.95,14.912c-8.257,0-14.95-6.676-14.95-14.912
		c0-8.235,6.693-14.911,14.95-14.911C193.231,1316.778,199.925,1323.454,199.925,1331.689z"/>
	<ellipse fill="#FFFFFF" cx="229.881" cy="897.01" rx="14.95" ry="14.912"/>
	<path fill="#FFFFFF" d="M650.784,275.686c0,8.236-6.693,14.912-14.95,14.912c-8.257,0-14.95-6.676-14.95-14.912
		c0-8.236,6.694-14.912,14.95-14.912C644.091,260.774,650.784,267.45,650.784,275.686z"/>
	<ellipse fill="#FFFFFF" cx="499.321" cy="664.895" rx="14.95" ry="14.912"/>
	<path fill="#FFFFFF" d="M1764.848,750.775c0,8.236-6.693,14.912-14.95,14.912s-14.95-6.676-14.95-14.912s6.693-14.912,14.95-14.912
		S1764.848,742.54,1764.848,750.775z"/>
	<path fill="#FFFFFF" d="M665.734,1641.834c0,8.236-6.693,14.912-14.95,14.912s-14.95-6.676-14.95-14.912
		c0-8.235,6.694-14.911,14.95-14.911S665.734,1633.599,665.734,1641.834z"/>
</g>
<path id="Comet" fill="#FFFFFF" d="M1518.668,1314.418c55.159,55.159,55.159,144.59,0,199.75c-55.159,55.159-144.59,55.159-199.75,0
	L393.963,389.463L1518.668,1314.418z"/>
<g>
</g>
<g>
</g>
<g>
</g>
<g>
</g>
<g>
</g>
<g>
</g>
<g>
</g>
<g>
</g>
<g>
</g>
<g>
</g>
<g>
</g>
<g>
</g>
<g>
</g>
<g>
</g>
<g>
</g>
</svg>
